<?xml version="1.0" encoding="UTF-8" standalone="no"?>
<!-- Created with Inkscape (http://www.inkscape.org/) -->

<svg
   xmlns:dc="http://purl.org/dc/elements/1.1/"
   xmlns:cc="http://creativecommons.org/ns#"
   xmlns:rdf="http://www.w3.org/1999/02/22-rdf-syntax-ns#"
   xmlns:svg="http://www.w3.org/2000/svg"
   xmlns="http://www.w3.org/2000/svg"
   xmlns:sodipodi="http://sodipodi.sourceforge.net/DTD/sodipodi-0.dtd"
   xmlns:inkscape="http://www.inkscape.org/namespaces/inkscape"
   width="6.7733335mm"
   height="7.0555553mm"
   viewBox="0 0 24.000001 24.999999"
   id="svg2"
   version="1.1"
   inkscape:version="0.91 r13725"
   sodipodi:docname="klassicon.svg">
  <defs
     id="defs4">
    <clipPath
       id="clipPath3412"
       clipPathUnits="userSpaceOnUse">
      <circle
         mask="none"
         r="68.048599"
         cy="746.64795"
         cx="181.42857"
         id="circle3414"
         style="opacity:1;fill:#ffffff;fill-opacity:1" />
    </clipPath>
  </defs>
  <sodipodi:namedview
     id="base"
     pagecolor="#ffffff"
     bordercolor="#666666"
     borderopacity="1.0"
     inkscape:pageopacity="0.0"
     inkscape:pageshadow="2"
     inkscape:zoom="7.9195959"
     inkscape:cx="-2.4034471"
     inkscape:cy="-10.837674"
     inkscape:document-units="px"
     inkscape:current-layer="layer1"
     showgrid="false"
     inkscape:window-width="1600"
     inkscape:window-height="838"
     inkscape:window-x="-8"
     inkscape:window-y="-8"
     inkscape:window-maximized="1"
     fit-margin-top="0"
     fit-margin-left="0"
     fit-margin-right="0"
     fit-margin-bottom="0" />
  <metadata
     id="metadata7">
    <rdf:RDF>
      <cc:Work
         rdf:about="">
        <dc:format>image/svg+xml</dc:format>
        <dc:type
           rdf:resource="http://purl.org/dc/dcmitype/StillImage" />
        <dc:title></dc:title>
      </cc:Work>
    </rdf:RDF>
  </metadata>
  <g
     inkscape:label="Layer 1"
     inkscape:groupmode="layer"
     id="layer1"
     transform="translate(-383.64354,-318.44881)">
    <g
       id="g3939"
       transform="matrix(0.20603121,0,0,0.20188314,382.88655,318.44881)"
       style="fill:#808080">
      <g
         id="g3891"
         style="fill:#808080">
        <g
           id="g3893"
           style="fill:#808080">
          <circle
             id="circle3895"
             r="12.813"
             cy="12.813"
             cx="61.935001"
             style="fill:#808080" />
          <circle
             id="circle3897"
             r="10.831"
             cy="20.323"
             cx="99.07"
             style="fill:#808080" />
          <path
             id="path3899"
             d="m 106.273,33.79 c -0.181,-0.111 -0.372,-0.19 -0.562,-0.272 -1.207,-0.806 -2.562,-1.397 -3.943,-1.736 l -2.697,2.717 -2.616,-2.747 c -0.01,0.005 -0.019,0.005 -0.027,0.006 -1.41,0.337 -2.792,0.942 -4.021,1.766 -0.186,0.081 -0.373,0.158 -0.554,0.268 -1.99,1.221 -5.502,3.376 -8.496,6.737 -3.85,-6.22 -9.864,-9.923 -12.898,-11.783 -0.215,-0.132 -0.441,-0.225 -0.666,-0.321 -1.429,-0.952 -3.03,-1.652 -4.666,-2.055 l -3.192,3.214 -3.095,-3.248 c -0.01,0.003 -0.021,0.003 -0.032,0.005 -1.668,0.399 -3.303,1.115 -4.756,2.091 -0.221,0.095 -0.443,0.187 -0.654,0.314 -3.037,1.861 -9.059,5.567 -12.908,11.796 -2.996,-3.369 -6.516,-5.528 -8.508,-6.75 -0.182,-0.111 -0.373,-0.19 -0.563,-0.272 -1.207,-0.806 -2.562,-1.397 -3.944,-1.736 l -2.698,2.717 -2.616,-2.747 c -0.009,0.005 -0.018,0.005 -0.027,0.006 -1.41,0.337 -2.792,0.942 -4.02,1.766 -0.187,0.081 -0.375,0.158 -0.554,0.268 -5.317,3.26 -21.5,13.186 -9.635,34.99 0.762,1.403 2.206,2.196 3.697,2.196 0.679,0 1.368,-0.164 2.006,-0.512 0.223,-0.121 0.427,-0.263 0.618,-0.416 l 0.003,39.146 c 0,2.743 2.225,4.967 4.97,4.967 2.745,0 4.97,-2.224 4.969,-4.968 L 24.186,74.64 c 0.196,0.008 0.393,0.024 0.591,0.024 0.039,0 0.077,-0.007 0.116,-0.007 l 0,34.538 c 0,2.743 2.224,4.968 4.968,4.968 10e-4,0 10e-4,0 10e-4,0 2.744,0 4.969,-2.225 4.969,-4.968 l 0.002,-39.574 c 0.304,0.33 0.664,0.618 1.082,0.847 0.639,0.348 1.327,0.512 2.005,0.512 1.388,0 2.727,-0.694 3.522,-1.92 0.187,0.361 0.356,0.718 0.557,1.084 0.902,1.658 2.61,2.6 4.374,2.6 0.803,0 1.618,-0.196 2.373,-0.605 0.264,-0.145 0.505,-0.312 0.731,-0.492 l 0.004,46.309 c 0,3.247 2.632,5.878 5.88,5.878 3.246,0 5.878,-2.631 5.878,-5.879 L 61.236,77.072 c 0.233,0.012 0.466,0.03 0.699,0.03 0.046,0 0.092,-0.006 0.138,-0.006 l -10e-4,40.857 c 0,3.248 2.632,5.879 5.878,5.879 0.002,0 0.002,0 0.002,0 3.245,0 5.878,-2.631 5.878,-5.879 l 0.002,-46.818 c 0.359,0.394 0.786,0.734 1.279,1.004 0.755,0.409 1.569,0.605 2.373,0.605 1.765,0 3.473,-0.939 4.374,-2.6 0.197,-0.36 0.363,-0.711 0.547,-1.065 0.797,1.214 2.131,1.901 3.512,1.901 0.678,0 1.368,-0.164 2.006,-0.512 0.223,-0.121 0.427,-0.263 0.619,-0.416 l 0.003,39.146 c 0,2.743 2.225,4.967 4.97,4.967 2.744,0 4.969,-2.224 4.968,-4.968 L 98.481,74.64 c 0.197,0.008 0.395,0.024 0.593,0.024 0.038,0 0.076,-0.007 0.115,-0.007 l 0,34.538 c 0,2.743 2.225,4.968 4.969,4.968 l 0,0 c 2.744,0 4.97,-2.225 4.97,-4.968 l 0.001,-39.574 c 0.304,0.33 0.665,0.618 1.082,0.847 0.639,0.348 1.326,0.512 2.004,0.512 1.492,0 2.936,-0.793 3.698,-2.196 11.86,-21.808 -4.32,-31.734 -9.64,-34.994 z M 13.691,61.362 c -2.297,-5.641 -1.844,-9.753 0,-12.953 l 0,12.953 z m 11.111,-5.429 -0.05,0 -2.611,-3.574 2.611,-17.458 0.05,0 2.612,17.458 -2.612,3.574 z m 11.06,5.401 0,-12.905 c 0.505,0.882 0.9,1.836 1.167,2.869 -0.107,1.646 -0.045,3.391 0.205,5.239 -0.221,1.467 -0.666,3.059 -1.372,4.797 z m 12.958,0.03 c -2.718,-6.673 -2.181,-11.538 0,-15.325 l 0,15.325 z m 13.145,-6.423 -0.06,0 -3.09,-4.229 3.09,-20.655 0.06,0 3.09,20.655 -3.09,4.229 z m 13.085,6.389 0,-15.267 c 2.165,3.777 2.696,8.627 0,15.267 z m 12.934,0.032 c -0.701,-1.724 -1.144,-3.304 -1.371,-4.761 0.262,-1.894 0.321,-3.681 0.207,-5.361 0.27,-1.018 0.663,-1.961 1.164,-2.831 l 0,12.953 z m 11.112,-5.429 -0.051,0 -2.611,-3.574 2.611,-17.458 0.051,0 2.612,17.458 -2.612,3.574 z m 11.06,5.401 0,-12.905 c 1.829,3.193 2.28,7.293 0,12.905 z"
             inkscape:connector-curvature="0"
             style="fill:#808080" />
          <circle
             id="circle3901"
             r="10.831"
             cy="20.323"
             cx="24.775999"
             style="fill:#808080" />
        </g>
      </g>
      <g
         id="g3903"
         style="fill:#808080" />
      <g
         id="g3905"
         style="fill:#808080" />
      <g
         id="g3907"
         style="fill:#808080" />
      <g
         id="g3909"
         style="fill:#808080" />
      <g
         id="g3911"
         style="fill:#808080" />
      <g
         id="g3913"
         style="fill:#808080" />
      <g
         id="g3915"
         style="fill:#808080" />
      <g
         id="g3917"
         style="fill:#808080" />
      <g
         id="g3919"
         style="fill:#808080" />
      <g
         id="g3921"
         style="fill:#808080" />
      <g
         id="g3923"
         style="fill:#808080" />
      <g
         id="g3925"
         style="fill:#808080" />
      <g
         id="g3927"
         style="fill:#808080" />
      <g
         id="g3929"
         style="fill:#808080" />
      <g
         id="g3931"
         style="fill:#808080" />
    </g>
  </g>
</svg>
