<?xml version="1.0" encoding="UTF-8" standalone="no"?>
<!-- Created with Inkscape (http://www.inkscape.org/) -->

<svg
   xmlns:dc="http://purl.org/dc/elements/1.1/"
   xmlns:cc="http://creativecommons.org/ns#"
   xmlns:rdf="http://www.w3.org/1999/02/22-rdf-syntax-ns#"
   xmlns:svg="http://www.w3.org/2000/svg"
   xmlns="http://www.w3.org/2000/svg"
   xmlns:sodipodi="http://sodipodi.sourceforge.net/DTD/sodipodi-0.dtd"
   xmlns:inkscape="http://www.inkscape.org/namespaces/inkscape"
   width="6.7733335mm"
   height="7.0555553mm"
   viewBox="0 0 24 24.999999"
   id="svg2"
   version="1.1"
   inkscape:version="0.91 r13725"
   sodipodi:docname="maticon.svg">
  <defs
     id="defs4">
    <clipPath
       id="clipPath3412"
       clipPathUnits="userSpaceOnUse">
      <circle
         mask="none"
         r="68.048599"
         cy="746.64795"
         cx="181.42857"
         id="circle3414"
         style="opacity:1;fill:#ffffff;fill-opacity:1" />
    </clipPath>
  </defs>
  <sodipodi:namedview
     id="base"
     pagecolor="#ffffff"
     bordercolor="#666666"
     borderopacity="1.0"
     inkscape:pageopacity="0.0"
     inkscape:pageshadow="2"
     inkscape:zoom="11.2"
     inkscape:cx="-9.6510246"
     inkscape:cy="22.083634"
     inkscape:document-units="px"
     inkscape:current-layer="layer1"
     showgrid="false"
     inkscape:window-width="1600"
     inkscape:window-height="838"
     inkscape:window-x="-8"
     inkscape:window-y="-8"
     inkscape:window-maximized="1"
     fit-margin-top="0"
     fit-margin-left="0"
     fit-margin-right="0"
     fit-margin-bottom="0" />
  <metadata
     id="metadata7">
    <rdf:RDF>
      <cc:Work
         rdf:about="">
        <dc:format>image/svg+xml</dc:format>
        <dc:type
           rdf:resource="http://purl.org/dc/dcmitype/StillImage" />
        <dc:title></dc:title>
      </cc:Work>
    </rdf:RDF>
  </metadata>
  <g
     inkscape:label="Layer 1"
     inkscape:groupmode="layer"
     id="layer1"
     transform="translate(-510.54772,-320.15539)">
    <g
       id="g4462"
       transform="matrix(0.08267424,0,0,0.08171697,509.90129,320.15539)"
       style="fill:#808080">
      <g
         id="g4398"
         style="fill:#808080">
        <g
           id="g4400"
           style="fill:#808080">
          <path
             id="path4402"
             d="m 34.989,160.926 c 0,20.143 5.059,39.105 13.963,55.686 l 93.405,-53.925 -94.801,-54.735 c -8.016,15.932 -12.567,33.913 -12.567,52.974 z m 29.572,29.137 c -2.97,1.403 -6.113,2.304 -9.29,3.102 -1.411,0.357 -5.217,1.005 -5.784,-1.108 -0.557,-2.082 3.047,-3.5 4.453,-3.853 2.296,-0.58 4.469,-1.181 6.618,-2.195 1.711,-0.813 5.217,-1.527 6.765,0.047 1.65,1.672 -1.649,3.479 -2.762,4.007 z m 40.501,-36.552 c 4.427,0 8.016,3.583 8.016,8.011 0,4.428 -3.588,8.011 -8.016,8.011 -4.422,0 -8.013,-3.583 -8.013,-8.011 -0.006,-4.428 3.585,-8.011 8.013,-8.011 z m -22.116,12.034 c 0,6.659 -5.393,12.044 -12.047,12.044 -6.651,0 -12.05,-5.396 -12.05,-12.044 0,-6.648 5.394,-12.042 12.05,-12.042 6.654,0 12.047,5.388 12.047,12.042 z m -24.097,-41.57 c 4.43,0 8.019,3.583 8.019,8.014 0,4.427 -3.588,8.01 -8.019,8.01 -4.422,0 -8.01,-3.583 -8.01,-8.01 0,-4.423 3.583,-8.014 8.01,-8.014 z M 43.887,158.71 c -6.876,0 0.917,-4.981 4.205,-4.981 6.876,0 -0.917,4.981 -4.205,4.981 z"
             inkscape:connector-curvature="0"
             style="fill:#808080" />
          <path
             id="path4404"
             d="m 147.665,37.117 0,-21.21 C 97.727,17.709 54.153,44.843 29.427,84.833 l 18.377,10.61 C 68.84,61.783 105.559,38.898 147.665,37.117 Z"
             inkscape:connector-curvature="0"
             style="fill:#808080" />
          <path
             id="path4406"
             d="m 268.74,79.542 18.377,-10.61 C 262.396,28.936 218.817,1.802 168.879,0 l 0,21.21 c 42.104,1.781 78.822,24.666 99.861,58.332 z"
             inkscape:connector-curvature="0"
             style="fill:#808080" />
          <path
             id="path4408"
             d="m 275.238,239.002 -18.382,-10.615 c -21.221,32.575 -57.317,54.598 -98.587,56.338 l 0,21.209 c 49.105,-1.771 92.041,-28.039 116.969,-66.932 z"
             inkscape:connector-curvature="0"
             style="fill:#808080" />
          <path
             id="path4410"
             d="m 263.359,104.681 c 8.643,16.891 13.552,35.996 13.552,56.245 0,21.086 -5.308,40.949 -14.634,58.348 l 18.383,10.615 c 11.128,-20.526 17.455,-44.025 17.455,-68.963 0,-24.104 -5.935,-46.833 -16.378,-66.862 l -18.378,10.617 z"
             inkscape:connector-curvature="0"
             style="fill:#808080" />
          <path
             id="path4412"
             d="m 43.66,219.273 c -9.321,-17.409 -14.631,-37.272 -14.631,-58.348 0,-20.249 4.911,-39.354 13.554,-56.252 L 24.2,94.059 c -10.441,20.028 -16.381,42.758 -16.381,66.857 0,24.942 6.328,48.436 17.458,68.962 L 43.66,219.273 Z"
             inkscape:connector-curvature="0"
             style="fill:#808080" />
          <path
             id="path4414"
             d="m 147.665,305.934 0,-21.209 C 106.398,282.98 70.304,260.962 49.079,228.387 l -18.377,10.615 c 24.924,38.893 67.863,65.161 116.963,66.932 z"
             inkscape:connector-curvature="0"
             style="fill:#808080" />
          <path
             id="path4416"
             d="M 147.665,43.082 C 107.568,44.853 72.686,66.64 52.742,98.698 l 94.923,54.805 0,-110.421 z M 89.18,101.98 c -6.648,0 -12.042,-5.393 -12.042,-12.042 0,-6.654 5.393,-12.047 12.042,-12.047 6.654,0 12.047,5.393 12.047,12.047 0.005,6.655 -5.393,12.042 -12.047,12.042 z m 35.939,21.995 c -4.422,0 -8.011,-3.583 -8.011,-8.01 0,-4.427 3.588,-8.013 8.011,-8.013 4.427,0 8.018,3.586 8.018,8.013 -0.005,4.427 -3.591,8.01 -8.018,8.01 z M 124.8,94.154 c -1.524,-1.888 -3.254,-2.864 -5.571,-3.495 -2.322,-0.635 -2.783,-3.102 -1.29,-4.798 1.755,-1.988 4.751,-2.625 7.244,-1.939 3.602,0.984 6.659,2.874 9.007,5.784 3.222,3.977 -6.547,7.964 -9.39,4.448 z m 4.037,-19.024 c -4.422,0 -8.013,-3.583 -8.013,-8.014 0,-4.427 3.591,-8.01 8.013,-8.01 4.427,0 8.018,3.583 8.018,8.01 0,4.43 -3.591,8.014 -8.018,8.014 z"
             inkscape:connector-curvature="0"
             style="fill:#808080" />
          <path
             id="path4418"
             d="m 270.945,160.926 c 0,-19.061 -4.541,-37.042 -12.567,-52.975 l -94.801,54.735 93.408,53.936 c 8.901,-16.591 13.96,-35.554 13.96,-55.696 z m -16.016,-34.189 c 6.856,0 -1.248,4.619 -4.298,4.619 -6.845,-0.005 1.253,-4.619 4.298,-4.619 z m -50.02,43.562 c -4.422,0 -8.011,-3.584 -8.011,-8.016 0,-4.423 3.589,-8.011 8.011,-8.011 4.433,0 8.016,3.588 8.016,8.011 -0.001,4.432 -3.584,8.016 -8.016,8.016 z m 22.033,-16.146 c 5.007,0 -4.541,4.132 -6.654,4.132 -5.002,0 4.546,-4.132 6.654,-4.132 z m -4.614,26.346 c -6.928,0 -0.145,-6.136 3.899,-6.136 6.934,-0.006 0.14,6.136 -3.899,6.136 z m 21.116,20.091 c -4.432,0 -8.016,-3.583 -8.016,-8.016 0,-4.422 3.594,-8.005 8.016,-8.005 4.428,0 8.016,3.583 8.016,8.005 -0.001,4.433 -3.588,8.016 -8.016,8.016 z m 4.034,-31.669 c -6.648,0 -12.039,-5.391 -12.039,-12.039 0,-6.654 5.391,-12.047 12.039,-12.047 6.653,0 12.05,5.393 12.05,12.047 -0.011,6.653 -5.402,12.039 -12.05,12.039 z"
             inkscape:connector-curvature="0"
             style="fill:#808080" />
          <path
             id="path4420"
             d="m 147.665,278.77 0,-106.897 -93.273,53.852 c 20.191,30.644 54.263,51.315 93.273,53.045 z m -16.91,-8.544 c -6.902,0 0.611,-5.317 4.117,-5.317 6.902,-10e-4 -0.611,5.317 -4.117,5.317 z m -1.918,-69.636 c 4.427,0 8.018,3.584 8.018,8.011 0,4.428 -3.591,8.011 -8.018,8.011 -4.422,0 -8.013,-3.583 -8.013,-8.011 0,-4.427 3.591,-8.011 8.013,-8.011 z m -20.612,18.745 c 6.937,0 0.319,6.328 -3.847,6.328 -6.931,0 -0.318,-6.328 3.847,-6.328 z m 4.847,10.554 c 6.656,0 12.047,5.39 12.047,12.044 0,6.653 -5.391,12.044 -12.047,12.044 -6.649,0 -12.042,-5.396 -12.042,-12.044 0,-6.655 5.393,-12.044 12.042,-12.044 z M 78.91,220.65 c 4.427,0 8.018,3.583 8.018,8.011 0,4.427 -3.591,8.011 -8.018,8.011 -4.422,0 -8.011,-3.584 -8.011,-8.011 0,-4.423 3.588,-8.011 8.011,-8.011 z"
             inkscape:connector-curvature="0"
             style="fill:#808080" />
          <path
             id="path4422"
             d="m 251.542,225.725 -93.273,-53.852 0,106.897 c 39.018,-1.73 73.09,-22.401 93.273,-53.045 z m -76.04,36.262 c -4.423,0 -8.011,-3.589 -8.011,-8.011 0,-4.433 3.588,-8.016 8.011,-8.016 4.427,0 8.021,3.583 8.021,8.016 0,4.422 -3.594,8.011 -8.021,8.011 z m 5.421,-33.321 c -6.648,0 -12.049,-5.396 -12.049,-12.044 0,-6.649 5.39,-12.045 12.049,-12.045 6.654,0 12.045,5.396 12.045,12.045 0,6.649 -5.39,12.044 -12.045,12.044 z m 12.185,17.745 c -4.986,0 4.582,-4.08 6.669,-4.08 4.976,0 -4.582,4.08 -6.669,4.08 z m 30.276,-8.517 c -4.428,0 -8.016,-3.583 -8.016,-8.005 0,-4.433 3.594,-8.017 8.016,-8.017 4.427,0 8.016,3.584 8.016,8.017 0,4.422 -3.589,8.005 -8.016,8.005 z"
             inkscape:connector-curvature="0"
             style="fill:#808080" />
          <path
             id="path4424"
             d="m 168.875,27.175 0,110.421 L 263.8,82.791 C 243.859,50.733 208.979,28.946 168.875,27.175 Z m 30.721,15.907 c 4.433,0 8.016,3.583 8.016,8.011 0,4.428 -3.583,8.013 -8.016,8.013 -4.422,0 -8.011,-3.586 -8.011,-8.013 -0.004,-4.427 3.583,-8.011 8.011,-8.011 z m -17.181,-7.498 c 6.934,0 0.611,6.639 -3.759,6.639 -6.934,0 -0.612,-6.639 3.759,-6.639 z m 5.136,74.754 c -6.648,0 -12.049,-5.393 -12.049,-12.042 0,-6.649 5.391,-12.042 12.049,-12.042 6.654,0 12.045,5.393 12.045,12.042 0,6.649 -5.39,12.042 -12.045,12.042 z m 12.345,-35.744 c -2.02,1.598 -5.183,2.032 -7.373,0.531 -2.263,-1.553 -5.101,-1.937 -7.741,-2.455 -2.217,-0.44 -4.293,-2.18 -3.216,-4.65 1.025,-2.335 4.204,-3.708 6.648,-3.226 4.251,0.844 8.503,1.678 12.138,4.174 2.164,1.481 1.284,4.254 -0.456,5.626 z m 6.618,18.755 c -6.929,0 -0.771,-6.814 3.718,-6.814 6.929,-0.006 0.771,6.814 -3.718,6.814 z m 16.87,-11.136 c -4.428,0 -8.016,-3.583 -8.016,-8.011 0,-4.428 3.594,-8.013 8.016,-8.013 4.427,0 8.016,3.586 8.016,8.013 0,4.427 -3.589,8.011 -8.016,8.011 z m 14.131,-3.484 c -4.986,0 4.583,-4.086 6.67,-4.086 4.986,-0.005 -4.583,4.086 -6.67,4.086 z"
             inkscape:connector-curvature="0"
             style="fill:#808080" />
        </g>
      </g>
      <g
         id="g4426"
         style="fill:#808080" />
      <g
         id="g4428"
         style="fill:#808080" />
      <g
         id="g4430"
         style="fill:#808080" />
      <g
         id="g4432"
         style="fill:#808080" />
      <g
         id="g4434"
         style="fill:#808080" />
      <g
         id="g4436"
         style="fill:#808080" />
      <g
         id="g4438"
         style="fill:#808080" />
      <g
         id="g4440"
         style="fill:#808080" />
      <g
         id="g4442"
         style="fill:#808080" />
      <g
         id="g4444"
         style="fill:#808080" />
      <g
         id="g4446"
         style="fill:#808080" />
      <g
         id="g4448"
         style="fill:#808080" />
      <g
         id="g4450"
         style="fill:#808080" />
      <g
         id="g4452"
         style="fill:#808080" />
      <g
         id="g4454"
         style="fill:#808080" />
    </g>
  </g>
</svg>
