<?xml version="1.0" encoding="UTF-8" standalone="no"?>
<!-- Created with Inkscape (http://www.inkscape.org/) -->

<svg
   xmlns:dc="http://purl.org/dc/elements/1.1/"
   xmlns:cc="http://creativecommons.org/ns#"
   xmlns:rdf="http://www.w3.org/1999/02/22-rdf-syntax-ns#"
   xmlns:svg="http://www.w3.org/2000/svg"
   xmlns="http://www.w3.org/2000/svg"
   xmlns:sodipodi="http://sodipodi.sourceforge.net/DTD/sodipodi-0.dtd"
   xmlns:inkscape="http://www.inkscape.org/namespaces/inkscape"
   width="6.7733331mm"
   height="7.0555553mm"
   viewBox="0 0 23.999999 24.999999"
   id="svg2"
   version="1.1"
   inkscape:version="0.91 r13725"
   sodipodi:docname="schemaicon.svg">
  <defs
     id="defs4">
    <clipPath
       id="clipPath3412"
       clipPathUnits="userSpaceOnUse">
      <circle
         mask="none"
         r="68.048599"
         cy="746.64795"
         cx="181.42857"
         id="circle3414"
         style="opacity:1;fill:#ffffff;fill-opacity:1" />
    </clipPath>
  </defs>
  <sodipodi:namedview
     id="base"
     pagecolor="#ffffff"
     bordercolor="#666666"
     borderopacity="1.0"
     inkscape:pageopacity="0.0"
     inkscape:pageshadow="2"
     inkscape:zoom="7.9195959"
     inkscape:cx="1.4907315"
     inkscape:cy="-3.7397788"
     inkscape:document-units="px"
     inkscape:current-layer="layer1"
     showgrid="false"
     inkscape:window-width="1600"
     inkscape:window-height="838"
     inkscape:window-x="-8"
     inkscape:window-y="-8"
     inkscape:window-maximized="1"
     fit-margin-top="0"
     fit-margin-left="0"
     fit-margin-right="0"
     fit-margin-bottom="0" />
  <metadata
     id="metadata7">
    <rdf:RDF>
      <cc:Work
         rdf:about="">
        <dc:format>image/svg+xml</dc:format>
        <dc:type
           rdf:resource="http://purl.org/dc/dcmitype/StillImage" />
        <dc:title></dc:title>
      </cc:Work>
    </rdf:RDF>
  </metadata>
  <g
     inkscape:label="Layer 1"
     inkscape:groupmode="layer"
     id="layer1"
     transform="translate(-358.67825,-318.15111)">
    <g
       id="g3863"
       transform="matrix(0.07142857,0,0,0.06910468,357.75789,318.15111)"
       style="fill:#808080">
      <g
         id="g3807"
         style="fill:#808080">
        <g
           id="g3809"
           style="fill:#808080">
          <g
             id="g3811"
             style="fill:#808080">
            <path
               id="path3813"
               d="m 323.885,43.77 -27.5,0 0,-18.77 c 0,-13.807 -11.193,-25 -25,-25 l -1,0 c -13.807,0 -25,11.193 -25,25 l 0,18.77 -129,0 0,-18.77 c 0,-13.807 -11.193,-25 -25,-25 l -1,0 c -13.807,0 -25,11.193 -25,25 l 0,18.77 -27.5,0 c -13.807,0 -25,11.193 -25,25 l 0,268 c 0,13.809 11.193,25 25,25 l 286,0 c 13.807,0 25,-11.191 25,-25 l 0,-268 c 0,-13.807 -11.194,-25 -25,-25 z m -17,278.5 -252,0 0,-203 252,0 0,203 z"
               inkscape:connector-curvature="0"
               style="fill:#808080" />
            <path
               id="path3815"
               d="m 89.136,211.134 43.498,0 c 2.209,0 4,-1.791 4,-4 l 0,-43.498 c 0,-2.209 -1.791,-4 -4,-4 l -43.498,0 c -2.209,0 -4,1.791 -4,4 l 0,43.498 c 0,2.209 1.791,4 4,4 z"
               inkscape:connector-curvature="0"
               style="fill:#808080" />
            <path
               id="path3817"
               d="m 159.136,211.134 43.498,0 c 2.209,0 4,-1.791 4,-4 l 0,-43.498 c 0,-2.209 -1.791,-4 -4,-4 l -43.498,0 c -2.209,0 -4,1.791 -4,4 l 0,43.498 c 0,2.209 1.791,4 4,4 z"
               inkscape:connector-curvature="0"
               style="fill:#808080" />
            <path
               id="path3819"
               d="m 229.136,211.134 43.498,0 c 2.209,0 4,-1.791 4,-4 l 0,-43.498 c 0,-2.209 -1.791,-4 -4,-4 l -43.498,0 c -2.209,0 -4,1.791 -4,4 l 0,43.498 c 0,2.209 1.791,4 4,4 z"
               inkscape:connector-curvature="0"
               style="fill:#808080" />
            <path
               id="path3821"
               d="m 89.136,281.134 43.498,0 c 2.209,0 4,-1.791 4,-4 l 0,-43.498 c 0,-2.209 -1.791,-4 -4,-4 l -43.498,0 c -2.209,0 -4,1.791 -4,4 l 0,43.498 c 0,2.209 1.791,4 4,4 z"
               inkscape:connector-curvature="0"
               style="fill:#808080" />
            <path
               id="path3823"
               d="m 159.136,281.134 43.498,0 c 2.209,0 4,-1.791 4,-4 l 0,-43.498 c 0,-2.209 -1.791,-4 -4,-4 l -43.498,0 c -2.209,0 -4,1.791 -4,4 l 0,43.498 c 0,2.209 1.791,4 4,4 z"
               inkscape:connector-curvature="0"
               style="fill:#808080" />
            <path
               id="path3825"
               d="m 229.136,281.134 43.498,0 c 2.209,0 4,-1.791 4,-4 l 0,-43.498 c 0,-2.209 -1.791,-4 -4,-4 l -43.498,0 c -2.209,0 -4,1.791 -4,4 l 0,43.498 c 0,2.209 1.791,4 4,4 z"
               inkscape:connector-curvature="0"
               style="fill:#808080" />
          </g>
        </g>
      </g>
      <g
         id="g3827"
         style="fill:#808080" />
      <g
         id="g3829"
         style="fill:#808080" />
      <g
         id="g3831"
         style="fill:#808080" />
      <g
         id="g3833"
         style="fill:#808080" />
      <g
         id="g3835"
         style="fill:#808080" />
      <g
         id="g3837"
         style="fill:#808080" />
      <g
         id="g3839"
         style="fill:#808080" />
      <g
         id="g3841"
         style="fill:#808080" />
      <g
         id="g3843"
         style="fill:#808080" />
      <g
         id="g3845"
         style="fill:#808080" />
      <g
         id="g3847"
         style="fill:#808080" />
      <g
         id="g3849"
         style="fill:#808080" />
      <g
         id="g3851"
         style="fill:#808080" />
      <g
         id="g3853"
         style="fill:#808080" />
      <g
         id="g3855"
         style="fill:#808080" />
    </g>
  </g>
</svg>
