<?xml version="1.0" encoding="UTF-8" standalone="no"?>
<!-- Created with Inkscape (http://www.inkscape.org/) -->

<svg
   xmlns:dc="http://purl.org/dc/elements/1.1/"
   xmlns:cc="http://creativecommons.org/ns#"
   xmlns:rdf="http://www.w3.org/1999/02/22-rdf-syntax-ns#"
   xmlns:svg="http://www.w3.org/2000/svg"
   xmlns="http://www.w3.org/2000/svg"
   xmlns:sodipodi="http://sodipodi.sourceforge.net/DTD/sodipodi-0.dtd"
   xmlns:inkscape="http://www.inkscape.org/namespaces/inkscape"
   width="5.6444449mm"
   height="5.6444449mm"
   viewBox="0 0 20.000002 20.000002"
   id="svg2"
   version="1.1"
   inkscape:version="0.91 r13725"
   sodipodi:docname="searchicon.svg">
  <defs
     id="defs4" />
  <sodipodi:namedview
     id="base"
     pagecolor="#ffffff"
     bordercolor="#666666"
     borderopacity="1.0"
     inkscape:pageopacity="0.0"
     inkscape:pageshadow="2"
     inkscape:zoom="22.4"
     inkscape:cx="3.8093041"
     inkscape:cy="9.6466592"
     inkscape:document-units="px"
     inkscape:current-layer="g4139"
     showgrid="false"
     fit-margin-top="0"
     fit-margin-left="0"
     fit-margin-right="0"
     fit-margin-bottom="0"
     inkscape:window-width="1600"
     inkscape:window-height="838"
     inkscape:window-x="-8"
     inkscape:window-y="-8"
     inkscape:window-maximized="1" />
  <metadata
     id="metadata7">
    <rdf:RDF>
      <cc:Work
         rdf:about="">
        <dc:format>image/svg+xml</dc:format>
        <dc:type
           rdf:resource="http://purl.org/dc/dcmitype/StillImage" />
        <dc:title></dc:title>
      </cc:Work>
    </rdf:RDF>
  </metadata>
  <g
     inkscape:label="Layer 1"
     inkscape:groupmode="layer"
     id="layer1"
     transform="translate(228.1853,-1262.7817)">
    <g
       id="g4183"
       transform="matrix(0.04121928,0,0,0.04121893,0.25216449,466.39778)">
      <g
         id="g4137">
        <g
           id="g4139">
          <path
             id="path4141"
             d="M 471.882,407.567 360.567,296.243 c -16.586,25.795 -38.536,47.734 -64.331,64.321 L 407.56,471.888 c 17.772,17.768 46.587,17.768 64.321,0 17.773,-17.739 17.773,-46.554 0.001,-64.321 z"
             inkscape:connector-curvature="0" />
          <path
             id="path4143"
             d="M 363.909,181.955 C 363.909,81.473 282.44,0 181.956,0 81.474,0 0.001,81.473 0.001,181.955 c 0,100.482 81.473,181.951 181.955,181.951 100.484,0 181.953,-81.469 181.953,-181.951 z M 181.956,318.416 c -75.252,0 -136.465,-61.208 -136.465,-136.46 0,-75.252 61.213,-136.465 136.465,-136.465 75.25,0 136.468,61.213 136.468,136.465 0,75.252 -61.218,136.46 -136.468,136.46 z"
             inkscape:connector-curvature="0" />
          <path
             id="path4145"
             d="m 75.817,181.955 30.322,0 c 0,-41.803 34.014,-75.814 75.816,-75.814 l 0,-30.325 c -58.517,0 -106.138,47.621 -106.138,106.139 z"
             inkscape:connector-curvature="0" />
          <g
             id="g4252"
             transform="translate(-5542.0061,19320.829)"
             style="fill:#ffffff">
            <g
               id="g4206"
               style="fill:#ffffff">
              <g
                 id="g4208"
                 style="fill:#ffffff">
                <path
                   id="path4210"
                   d="M 471.882,407.567 360.567,296.243 c -16.586,25.795 -38.536,47.734 -64.331,64.321 L 407.56,471.888 c 17.772,17.768 46.587,17.768 64.321,0 17.773,-17.739 17.773,-46.554 0.001,-64.321 z"
                   inkscape:connector-curvature="0"
                   style="fill:#ffffff" />
                <path
                   id="path4212"
                   d="M 363.909,181.955 C 363.909,81.473 282.44,0 181.956,0 81.474,0 0.001,81.473 0.001,181.955 c 0,100.482 81.473,181.951 181.955,181.951 100.484,0 181.953,-81.469 181.953,-181.951 z M 181.956,318.416 c -75.252,0 -136.465,-61.208 -136.465,-136.46 0,-75.252 61.213,-136.465 136.465,-136.465 75.25,0 136.468,61.213 136.468,136.465 0,75.252 -61.218,136.46 -136.468,136.46 z"
                   inkscape:connector-curvature="0"
                   style="fill:#ffffff" />
                <path
                   id="path4214"
                   d="m 75.817,181.955 30.322,0 c 0,-41.803 34.014,-75.814 75.816,-75.814 l 0,-30.325 c -58.517,0 -106.138,47.621 -106.138,106.139 z"
                   inkscape:connector-curvature="0"
                   style="fill:#ffffff" />
              </g>
            </g>
            <g
               id="g4216"
               style="fill:#ffffff" />
            <g
               id="g4218"
               style="fill:#ffffff" />
            <g
               id="g4220"
               style="fill:#ffffff" />
            <g
               id="g4222"
               style="fill:#ffffff" />
            <g
               id="g4224"
               style="fill:#ffffff" />
            <g
               id="g4226"
               style="fill:#ffffff" />
            <g
               id="g4228"
               style="fill:#ffffff" />
            <g
               id="g4230"
               style="fill:#ffffff" />
            <g
               id="g4232"
               style="fill:#ffffff" />
            <g
               id="g4234"
               style="fill:#ffffff" />
            <g
               id="g4236"
               style="fill:#ffffff" />
            <g
               id="g4238"
               style="fill:#ffffff" />
            <g
               id="g4240"
               style="fill:#ffffff" />
            <g
               id="g4242"
               style="fill:#ffffff" />
            <g
               id="g4244"
               style="fill:#ffffff" />
          </g>
        </g>
      </g>
      <g
         id="g4147" />
      <g
         id="g4149" />
      <g
         id="g4151" />
      <g
         id="g4153" />
      <g
         id="g4155" />
      <g
         id="g4157" />
      <g
         id="g4159" />
      <g
         id="g4161" />
      <g
         id="g4163" />
      <g
         id="g4165" />
      <g
         id="g4167" />
      <g
         id="g4169" />
      <g
         id="g4171" />
      <g
         id="g4173" />
      <g
         id="g4175" />
    </g>
  </g>
</svg>
