<?xml version="1.0" encoding="UTF-8" standalone="no"?>
<!-- Created with Inkscape (http://www.inkscape.org/) -->

<svg
   xmlns:dc="http://purl.org/dc/elements/1.1/"
   xmlns:cc="http://creativecommons.org/ns#"
   xmlns:rdf="http://www.w3.org/1999/02/22-rdf-syntax-ns#"
   xmlns:svg="http://www.w3.org/2000/svg"
   xmlns="http://www.w3.org/2000/svg"
   xmlns:sodipodi="http://sodipodi.sourceforge.net/DTD/sodipodi-0.dtd"
   xmlns:inkscape="http://www.inkscape.org/namespaces/inkscape"
   width="6.7733335mm"
   height="7.0555553mm"
   viewBox="0 0 24 24.999999"
   id="svg2"
   version="1.1"
   inkscape:version="0.91 r13725"
   sodipodi:docname="verktygicon.svg">
  <defs
     id="defs4">
    <clipPath
       id="clipPath3412"
       clipPathUnits="userSpaceOnUse">
      <circle
         mask="none"
         r="68.048599"
         cy="746.64795"
         cx="181.42857"
         id="circle3414"
         style="opacity:1;fill:#ffffff;fill-opacity:1" />
    </clipPath>
  </defs>
  <sodipodi:namedview
     id="base"
     pagecolor="#ffffff"
     bordercolor="#666666"
     borderopacity="1.0"
     inkscape:pageopacity="0.0"
     inkscape:pageshadow="2"
     inkscape:zoom="7.9195959"
     inkscape:cx="23.861885"
     inkscape:cy="18.051748"
     inkscape:document-units="px"
     inkscape:current-layer="layer1"
     showgrid="false"
     inkscape:window-width="1600"
     inkscape:window-height="838"
     inkscape:window-x="-8"
     inkscape:window-y="-8"
     inkscape:window-maximized="1"
     fit-margin-top="0"
     fit-margin-left="0"
     fit-margin-right="0"
     fit-margin-bottom="0" />
  <metadata
     id="metadata7">
    <rdf:RDF>
      <cc:Work
         rdf:about="">
        <dc:format>image/svg+xml</dc:format>
        <dc:type
           rdf:resource="http://purl.org/dc/dcmitype/StillImage" />
        <dc:title></dc:title>
      </cc:Work>
    </rdf:RDF>
  </metadata>
  <g
     inkscape:label="Layer 1"
     inkscape:groupmode="layer"
     id="layer1"
     transform="translate(-460.91818,-318.81192)">
    <g
       id="g4315"
       transform="matrix(0.78226858,0,0,0.82413054,460.91818,318.67017)"
       style="fill:#808080">
      <g
         id="g4269"
         style="fill:#808080">
        <g
           id="g4271"
           style="fill:#808080">
          <polygon
             id="polygon4273"
             points="23.672,11.139 21.784,9.216 21.006,9.98 22.895,11.904 22.051,12.73 20.827,11.48 20.047,12.245 22.363,14.546 30.68,6.384 24.584,0.172 16.171,8.427 17.241,9.498 24.562,2.313 28.538,6.364 27.229,7.649 25.341,5.727 24.562,6.489 26.45,8.415 25.607,9.24 24.383,7.99 23.604,8.755 24.829,10.005 "
             style="fill:#808080" />
          <polygon
             id="polygon4275"
             points="9.557,24.991 7.47,22.864 6.69,23.627 8.778,25.755 7.935,26.583 6.51,25.13 5.733,25.895 7.157,27.345 6.116,28.368 2.141,24.315 11.006,15.615 9.935,14.546 0,24.294 6.097,30.507 16.036,20.793 13.535,18.237 12.756,19.002 14.182,20.454 13.113,21.501 11.025,19.374 10.247,20.138 12.334,22.265 11.492,23.091 10.068,21.64 9.289,22.405 10.713,23.856 "
             style="fill:#808080" />
          <path
             id="path4277"
             d="M 12.365,6.064 12.374,6.056 8.285,1.968 3.479,6.774 l 4.089,4.089 0.006,-0.007 12.669,12.669 7.789,3.422 -2.919,-8.1 L 12.365,6.064 Z M 6.784,8.289 5.271,6.775 8.287,3.759 9.8,5.271 6.784,8.289 Z m 18.232,16.655 -4.367,-1.906 -0.576,-0.578 2.578,0.154 -0.435,-1.793 1.89,0.336 0.021,-2.444 0.416,0.417 1.664,4.625 -1.191,1.189 z"
             inkscape:connector-curvature="0"
             style="fill:#808080" />
        </g>
      </g>
      <g
         id="g4279"
         style="fill:#808080" />
      <g
         id="g4281"
         style="fill:#808080" />
      <g
         id="g4283"
         style="fill:#808080" />
      <g
         id="g4285"
         style="fill:#808080" />
      <g
         id="g4287"
         style="fill:#808080" />
      <g
         id="g4289"
         style="fill:#808080" />
      <g
         id="g4291"
         style="fill:#808080" />
      <g
         id="g4293"
         style="fill:#808080" />
      <g
         id="g4295"
         style="fill:#808080" />
      <g
         id="g4297"
         style="fill:#808080" />
      <g
         id="g4299"
         style="fill:#808080" />
      <g
         id="g4301"
         style="fill:#808080" />
      <g
         id="g4303"
         style="fill:#808080" />
      <g
         id="g4305"
         style="fill:#808080" />
      <g
         id="g4307"
         style="fill:#808080" />
    </g>
  </g>
</svg>
