<?xml version="1.0" encoding="UTF-8" standalone="no"?>
<!-- Created with Inkscape (http://www.inkscape.org/) -->

<svg
   xmlns:dc="http://purl.org/dc/elements/1.1/"
   xmlns:cc="http://creativecommons.org/ns#"
   xmlns:rdf="http://www.w3.org/1999/02/22-rdf-syntax-ns#"
   xmlns:svg="http://www.w3.org/2000/svg"
   xmlns="http://www.w3.org/2000/svg"
   xmlns:sodipodi="http://sodipodi.sourceforge.net/DTD/sodipodi-0.dtd"
   xmlns:inkscape="http://www.inkscape.org/namespaces/inkscape"
   width="7.6199999mm"
   height="7.6199999mm"
   viewBox="0 0 26.999999 26.999999"
   id="svg2"
   version="1.1"
   inkscape:version="0.91 r13725"
   sodipodi:docname="worldicon.svg">
  <defs
     id="defs4">
    <clipPath
       id="clipPath3412"
       clipPathUnits="userSpaceOnUse">
      <circle
         mask="none"
         r="68.048599"
         cy="746.64795"
         cx="181.42857"
         id="circle3414"
         style="opacity:1;fill:#ffffff;fill-opacity:1" />
    </clipPath>
  </defs>
  <sodipodi:namedview
     id="base"
     pagecolor="#ffffff"
     bordercolor="#666666"
     borderopacity="1.0"
     inkscape:pageopacity="0.0"
     inkscape:pageshadow="2"
     inkscape:zoom="7.9195959"
     inkscape:cx="8.1507285"
     inkscape:cy="10.470716"
     inkscape:document-units="px"
     inkscape:current-layer="layer1"
     showgrid="false"
     inkscape:window-width="1600"
     inkscape:window-height="838"
     inkscape:window-x="-8"
     inkscape:window-y="-8"
     inkscape:window-maximized="1"
     fit-margin-top="0"
     fit-margin-left="0"
     fit-margin-right="0"
     fit-margin-bottom="0" />
  <metadata
     id="metadata7">
    <rdf:RDF>
      <cc:Work
         rdf:about="">
        <dc:format>image/svg+xml</dc:format>
        <dc:type
           rdf:resource="http://purl.org/dc/dcmitype/StillImage" />
        <dc:title></dc:title>
      </cc:Work>
    </rdf:RDF>
  </metadata>
  <g
     inkscape:label="Layer 1"
     inkscape:groupmode="layer"
     id="layer1"
     transform="translate(-510.65248,-319.078)">
    <g
       id="g4816"
       transform="matrix(0.05141358,0,0,0.05141358,510.65248,319.078)"
       style="fill:#4d4d4d">
      <g
         id="g4776"
         style="fill:#4d4d4d">
        <path
           id="path4778"
           d="m 96.781,290.234 c -15.229,0 -27.658,12.407 -27.658,27.658 0,15.12 12.407,27.658 27.658,27.658 15.12,0 27.658,-12.516 27.658,-27.658 0,-15.251 -12.538,-27.658 -27.658,-27.658 z m 0,110.479 c -15.229,0 -27.658,12.516 -27.658,27.658 0,15.229 12.407,27.658 27.658,27.658 15.12,0 27.658,-12.407 27.658,-27.658 0,-15.12 -12.538,-27.658 -27.658,-27.658 z m 0,-221.089 c -15.229,0 -27.658,12.516 -27.658,27.658 0,15.229 12.407,27.658 27.658,27.658 15.12,0 27.658,-12.407 27.658,-27.658 0,-15.142 -12.538,-27.658 -27.658,-27.658 z M 13.829,193.453 C 6.105,193.453 0,199.558 0,207.282 c 0,7.724 6.105,13.829 13.829,13.829 7.724,0 13.829,-6.105 13.829,-13.829 0,-7.724 -6.127,-13.829 -13.829,-13.829 z M 96.781,69.123 c -15.229,0 -27.658,12.407 -27.658,27.658 0,15.12 12.407,27.658 27.658,27.658 15.12,0 27.658,-12.516 27.658,-27.658 0,-15.229 -12.538,-27.658 -27.658,-27.658 z m 414.543,151.966 c 7.724,0 13.829,-6.105 13.829,-13.829 0,-7.724 -6.105,-13.829 -13.829,-13.829 -7.724,0 -13.829,6.105 -13.829,13.829 0,7.724 6.126,13.829 13.829,13.829 z M 317.87,124.439 c 15.12,0 27.658,-12.516 27.658,-27.658 0,-15.229 -12.516,-27.658 -27.658,-27.658 -15.229,0 -27.658,12.407 -27.658,27.658 0.022,15.12 12.429,27.658 27.658,27.658 z m 0,-96.781 c 7.724,0 13.829,-6.105 13.829,-13.829 C 331.699,6.105 325.595,0 317.87,0 c -7.724,0 -13.829,6.105 -13.829,13.829 0,7.724 6.127,13.829 13.829,13.829 z M 13.829,304.063 C 6.105,304.063 0,310.168 0,317.87 c 0,7.702 6.105,13.829 13.829,13.829 7.724,0 13.829,-6.105 13.829,-13.829 0,-7.724 -6.127,-13.807 -13.829,-13.807 z m 193.453,193.432 c -7.724,0 -13.829,6.105 -13.829,13.829 0,7.724 6.105,13.829 13.829,13.829 7.724,0 13.829,-6.105 13.829,-13.829 0,-7.725 -6.127,-13.829 -13.829,-13.829 z m 0,-469.837 c 7.724,0 13.829,-6.105 13.829,-13.829 C 221.111,6.105 214.984,0 207.282,0 c -7.702,0 -13.829,6.105 -13.829,13.829 0,7.724 6.105,13.829 13.829,13.829 z m 0,96.781 c 15.229,0 27.658,-12.516 27.658,-27.658 0,-15.229 -12.407,-27.658 -27.658,-27.658 -15.12,0 -27.658,12.407 -27.658,27.658 0,15.12 12.516,27.658 27.658,27.658 z m 0,151.966 c -22.975,0 -41.487,18.512 -41.487,41.487 0,22.975 18.512,41.487 41.487,41.487 22.975,0 41.487,-18.512 41.487,-41.487 0,-22.975 -18.533,-41.487 -41.487,-41.487 z m 221.089,13.829 c -15.12,0 -27.658,12.407 -27.658,27.658 0,15.12 12.516,27.658 27.658,27.658 15.229,0 27.658,-12.516 27.658,-27.658 0,-15.251 -12.428,-27.658 -27.658,-27.658 z m 0,110.479 c -15.12,0 -27.658,12.516 -27.658,27.658 0,15.229 12.516,27.658 27.658,27.658 15.229,0 27.658,-12.407 27.658,-27.658 0,-15.12 -12.428,-27.658 -27.658,-27.658 z m 0,-221.089 c -15.12,0 -27.658,12.516 -27.658,27.658 0,15.229 12.516,27.658 27.658,27.658 15.229,0 27.658,-12.407 27.658,-27.658 0,-15.142 -12.428,-27.658 -27.658,-27.658 z m 0,-110.501 c -15.12,0 -27.658,12.407 -27.658,27.658 0,15.12 12.516,27.658 27.658,27.658 15.229,0 27.658,-12.516 27.658,-27.658 0,-15.229 -12.428,-27.658 -27.658,-27.658 z m 82.953,234.94 c -7.724,0 -13.829,6.105 -13.829,13.829 0,7.724 6.105,13.829 13.829,13.829 7.724,0 13.829,-6.127 13.829,-13.851 0,-7.724 -6.105,-13.807 -13.829,-13.807 z m -193.454,96.65 c -15.229,0 -27.658,12.516 -27.658,27.658 0,15.229 12.407,27.658 27.658,27.658 15.12,0 27.658,-12.407 27.658,-27.658 10e-4,-15.12 -12.516,-27.658 -27.658,-27.658 z m 0,96.782 c -7.724,0 -13.829,6.105 -13.829,13.829 0,7.724 6.127,13.829 13.829,13.829 7.702,0 13.829,-6.105 13.829,-13.829 0,-7.725 -6.104,-13.829 -13.829,-13.829 z m -110.588,-331.7 c -22.975,0 -41.487,18.512 -41.487,41.487 0,22.975 18.512,41.487 41.487,41.487 22.975,0 41.487,-18.512 41.487,-41.487 0,-22.975 -18.533,-41.487 -41.487,-41.487 z m 0,234.918 c -15.12,0 -27.658,12.516 -27.658,27.658 0,15.229 12.516,27.658 27.658,27.658 15.229,0 27.658,-12.407 27.658,-27.658 -0.022,-15.12 -12.429,-27.658 -27.658,-27.658 z M 317.87,276.405 c -22.975,0 -41.487,18.512 -41.487,41.487 0,22.975 18.512,41.487 41.487,41.487 22.975,0 41.487,-18.512 41.487,-41.487 0,-22.975 -18.511,-41.487 -41.487,-41.487 z m 0,-110.61 c -22.975,0 -41.487,18.512 -41.487,41.487 0,22.975 18.512,41.487 41.487,41.487 22.975,0 41.487,-18.512 41.487,-41.487 0,-22.975 -18.511,-41.487 -41.487,-41.487 z"
           inkscape:connector-curvature="0"
           style="fill:#4d4d4d" />
      </g>
      <g
         id="g4780"
         style="fill:#4d4d4d" />
      <g
         id="g4782"
         style="fill:#4d4d4d" />
      <g
         id="g4784"
         style="fill:#4d4d4d" />
      <g
         id="g4786"
         style="fill:#4d4d4d" />
      <g
         id="g4788"
         style="fill:#4d4d4d" />
      <g
         id="g4790"
         style="fill:#4d4d4d" />
      <g
         id="g4792"
         style="fill:#4d4d4d" />
      <g
         id="g4794"
         style="fill:#4d4d4d" />
      <g
         id="g4796"
         style="fill:#4d4d4d" />
      <g
         id="g4798"
         style="fill:#4d4d4d" />
      <g
         id="g4800"
         style="fill:#4d4d4d" />
      <g
         id="g4802"
         style="fill:#4d4d4d" />
      <g
         id="g4804"
         style="fill:#4d4d4d" />
      <g
         id="g4806"
         style="fill:#4d4d4d" />
      <g
         id="g4808"
         style="fill:#4d4d4d" />
    </g>
  </g>
</svg>
